<svg width="320" height="196" viewBox="0 0 320 196" fill="none" xmlns="http://www.w3.org/2000/svg">
    <g clip-path="url(#clip0_58_588)">
        <rect width="320" height="196" rx="10" fill="#66aeff" />
        <text x="20" y="50" fill="black" font-size="24" font-weight="bold" font-family="Arial" font-style="italic">Swap
            Theme</text>
        <path
            d="M380.994 154.001C380.994 146.951 378.078 142.533 372.433 141.029C371.022 140.653 369.516 140.653 368.011 140.653C336.305 140.653 304.599 140.653 272.799 140.653C268.189 140.653 268.095 140.559 268.095 135.859C268.001 129.373 270.259 124.015 274.304 118.845C288.417 100.984 283.148 75.5102 263.202 64.512C241.281 52.3859 213.244 66.298 209.669 90.9263C208.164 101.454 210.328 111.043 217.102 119.221C221.335 124.391 223.123 130.031 222.935 136.705C222.841 139.995 221.712 140.747 218.701 140.747C186.995 140.653 155.289 140.653 123.489 140.747C121.513 140.747 119.537 140.653 117.656 141.123C112.011 142.533 109 147.045 109 154.001C109 170.451 109 186.901 109 203.352L380.9 203.352C380.994 186.807 380.994 170.451 380.994 154.001Z"
            fill="#9fc5e8" />
    </g>
    <defs>
        <clipPath id="clip0_58_588">
            <rect width="320" height="196" rx="10" fill="white" />
        </clipPath>
    </defs>
</svg>